<?xml version="1.0" encoding="UTF-8" standalone="no"?>
<svg
   xmlns:osb="http://www.openswatchbook.org/uri/2009/osb"
   xmlns:dc="http://purl.org/dc/elements/1.1/"
   xmlns:cc="http://creativecommons.org/ns#"
   xmlns:rdf="http://www.w3.org/1999/02/22-rdf-syntax-ns#"
   xmlns:svg="http://www.w3.org/2000/svg"
   xmlns="http://www.w3.org/2000/svg"
   xmlns:xlink="http://www.w3.org/1999/xlink"
   xmlns:sodipodi="http://sodipodi.sourceforge.net/DTD/sodipodi-0.dtd"
   xmlns:inkscape="http://www.inkscape.org/namespaces/inkscape"
   inkscape:version="1.0beta1 (32d4812, 2019-09-19)"
   sodipodi:docname="blivenbabywearing_logo_simple_grey.svg"
   width="27mm"
   height="27mm"
   viewBox="0 0 95.669292 95.669291"
   id="svg4328"
   version="1.1">
  <sodipodi:namedview
     pagecolor="#ffffff"
     bordercolor="#666666"
     inkscape:document-rotation="0"
     borderopacity="1"
     objecttolerance="10"
     gridtolerance="10"
     guidetolerance="10"
     inkscape:pageopacity="0"
     inkscape:pageshadow="2"
     inkscape:window-width="1440"
     inkscape:window-height="855"
     id="namedview59"
     showgrid="false"
     inkscape:zoom="3.959798"
     inkscape:cx="54.512421"
     inkscape:cy="32.658943"
     inkscape:window-x="0"
     inkscape:window-y="23"
     inkscape:window-maximized="0"
     inkscape:current-layer="g5423" />
  <defs
     id="defs4330">
    <linearGradient
       id="linearGradient4703">
      <stop
         id="stop4705"
         offset="0"
         style="stop-color:#393939;stop-opacity:1;opacity:1" />
    </linearGradient>
    <linearGradient
       id="linearGradient4669">
      <stop
         id="stop4671"
         offset="0"
         style="stop-color:#595959;stop-opacity:1;opacity:1" />
      <stop
         id="stop4673"
         offset="1"
         style="stop-color:#595959;stop-opacity:0;opacity:1" />
    </linearGradient>
    <linearGradient
       id="linearGradient4657">
      <stop
         id="stop4659"
         offset="0"
         style="stop-color:#a9a9a9;stop-opacity:1;opacity:1" />
    </linearGradient>
    <linearGradient
       id="linearGradient4641"
       gradientTransform="translate(0,-3.8146975e-6)">
      <stop
         style="stop-color:#ffffff;stop-opacity:0;opacity:1"
         offset="0"
         id="stop4643" />
    </linearGradient>
    <linearGradient
       id="pink_lily">
      <stop
         style="stop-color:#595959;stop-opacity:0.94509804;opacity:1"
         offset="0"
         id="stop4629" />
      <stop
         id="stop4649"
         offset="0.72412372"
         style="stop-color:#cecece;stop-opacity:0.97647059;opacity:1" />
      <stop
         style="stop-color:#ffffff;stop-opacity:1;opacity:1"
         offset="1"
         id="stop4631" />
    </linearGradient>
    <linearGradient
       id="linearGradient4603">
      <stop
         id="stop4605"
         offset="0"
         style="stop-color:#686868;stop-opacity:1;opacity:1" />
    </linearGradient>
    <linearGradient
       id="linearGradient5608">
      <stop
         id="stop5610"
         offset="0"
         style="stop-color:#424242;stop-opacity:1;opacity:1" />
    </linearGradient>
    <linearGradient
       id="lillac">
      <stop
         id="stop5597"
         offset="0"
         style="stop-color:#e5e5e5;stop-opacity:1;opacity:1" />
    </linearGradient>
    <linearGradient
       osb:paint="solid"
       id="wrap">
      <stop
         id="stop5571"
         offset="0"
         style="stop-color:#989898;stop-opacity:1;opacity:1" />
    </linearGradient>
    <linearGradient
       osb:paint="solid"
       id="hex">
      <stop
         id="stop5565"
         offset="0"
         style="stop-color:#c4c4c4;stop-opacity:1;opacity:1" />
    </linearGradient>
    <linearGradient
       osb:paint="solid"
       id="skin">
      <stop
         id="stop5559"
         offset="0"
         style="stop-color:#ffffff;stop-opacity:1;opacity:1" />
    </linearGradient>
    <linearGradient
       osb:paint="solid"
       id="hair">
      <stop
         id="stop5553"
         offset="0"
         style="stop-color:#424242;stop-opacity:1;opacity:1" />
    </linearGradient>
    <linearGradient
       id="linearGradient5545">
      <stop
         id="stop5547"
         offset="0"
         style="stop-color:#a9a9a9;stop-opacity:1;opacity:1" />
    </linearGradient>
    <linearGradient
       id="linearGradient5529">
      <stop
         id="stop5531"
         offset="0"
         style="stop-color:#444444;stop-opacity:1;opacity:1" />
    </linearGradient>
    <linearGradient
       gradientTransform="matrix(0.80931881,0.42283561,-0.42283567,0.80931881,15.534215,-10.730025)"
       osb:paint="solid"
       id="flower_background">
      <stop
         id="stop5519"
         offset="0"
         style="stop-color:#595959;stop-opacity:0.97254902;opacity:1" />
    </linearGradient>
    <linearGradient
       gradientTransform="translate(0,-3.8146975e-6)"
       id="flower_outline">
      <stop
         id="stop5513"
         offset="0"
         style="stop-color:#000000;stop-opacity:0;opacity:1" />
    </linearGradient>
    <linearGradient
       gradientTransform="matrix(0.91894929,0,0,0.91181926,-439.43797,-607.36579)"
       gradientUnits="userSpaceOnUse"
       y2="115.64865"
       x2="247.5"
       y1="115.64865"
       x1="155.69768"
       id="linearGradient5555"
       xlink:href="#hair" />
    <linearGradient
       gradientTransform="matrix(0.91894929,0,0,0.91181926,-439.43797,-547.19918)"
       gradientUnits="userSpaceOnUse"
       y2="49.67897"
       x2="247.49947"
       y1="49.67897"
       x1="155.6472"
       id="linearGradient5561"
       xlink:href="#skin" />
    <linearGradient
       gradientUnits="userSpaceOnUse"
       y2="63.828125"
       x2="68.67923"
       y1="63.828125"
       x1="9.875"
       id="linearGradient5567"
       xlink:href="#hex"
       gradientTransform="translate(-5.6306201,-2.8345793)" />
    <linearGradient
       gradientTransform="matrix(0.91894929,0,0,0.91181926,-439.43797,-607.36579)"
       gradientUnits="userSpaceOnUse"
       y2="136.35213"
       x2="230.38783"
       y1="136.35213"
       x1="166.39339"
       id="linearGradient5573"
       xlink:href="#wrap" />
  </defs>
  <metadata
     id="metadata4333">
    <rdf:RDF>
      <cc:Work
         rdf:about="">
        <dc:format>image/svg+xml</dc:format>
        <dc:type
           rdf:resource="http://purl.org/dc/dcmitype/StillImage" />
        <dc:title />
      </cc:Work>
    </rdf:RDF>
  </metadata>
  <g
     style="display:inline;opacity:1"
     transform="translate(290.77546,544.06636)"
     id="layer1">
    <g
       id="g5423"
       transform="translate(5.6306201,2.8345793)">
      <path
         style="display:inline;fill:#ffffff;fill-opacity:1;fill-rule:evenodd;stroke:none;opacity:1"
         d="m -250.81619,-544.06541 c -0.46932,-0.004 -0.94751,0.006 -1.43047,0.0321 -0.47111,0.025 -0.94649,0.0639 -1.42868,0.11754 -8.79528,0.96766 -19.28566,6.7175 -25.76648,17.61485 -3.59262,6.04092 -6.61848,12.97145 -8.63669,20.09208 -7.86651,27.48588 -0.59144,57.87877 49.73096,51.21147 0.73817,-0.0978 1.47598,-0.19421 2.23276,-0.30809 0.11176,-0.0168 0.20257,-0.038 0.31229,-0.0552 0.17128,-0.0259 0.33571,-0.0463 0.50794,-0.073 -0.071,0.007 -0.14248,0.0123 -0.21359,0.0196 4.06985,-0.66664 6.73972,-1.63769 8.64029,-2.98834 11.70972,-2.95618 19.039,-12.06618 13.31938,-25.17476 3.70085,4.6217 4.38641,9.21084 2.35839,15.57216 18.2179,-28.66728 -21.09831,-38.88043 -20.46457,-50.97283 0.0414,-0.37897 0.10997,-0.75595 0.2082,-1.13087 2.56662,-9.79557 -0.20126,-13.98735 -7.4539,-17.59883 -1.81986,-4.15135 -6.35308,-6.30593 -11.91583,-6.3578 z"
         id="path5096-2"
         inkscape:connector-curvature="0" />
      <path
         id="path142-3"
         style="fill:#424242;fill-opacity:1;fill-rule:evenodd;stroke:none;opacity:1"
         d="m -238.33483,-529.87986 c 2.42099,8.87191 -17.06517,8.03141 -14.53722,18.40163 -3.53969,-4.02116 0.0421,-8.97757 3.46281,-12.64085 -10.76086,10.66265 -24.21366,9.80783 -29.3331,24.89996 -1.1905,3.50923 -1.90752,7.15881 -1.90752,10.1289 0,12.0069 5.00623,23.6429 12.34584,28.49849 8.86605,5.86363 21.10829,6.39274 33.00984,5.15749 -66.24606,10.27881 -61.86513,-41.07661 -44.14808,-70.86754 11.50722,-19.34914 35.65679,-22.47459 40.50974,-11.4043 7.25264,3.61147 10.02055,7.80305 7.45393,17.59861 -3.30308,12.60745 39.07165,22.54685 20.28912,52.1026 2.02801,-6.36132 1.34171,-10.95093 -2.35915,-15.57263 5.88551,13.48877 -2.03146,22.7634 -14.33559,25.435 11.11563,-6.59037 3.04408,-23.60943 -4.09039,-27.85098 6.84387,-1.34015 10.25276,-5.25013 9.9491,-9.60667 -0.40739,-5.85553 -5.03362,-9.24205 -10.65808,-9.47382 -3.71392,-0.15338 -7.57141,1.2495 -8.76748,5.52015 -0.21846,0.77915 -1.32041,0.62441 -1.93801,1.06886 -0.60662,0.43694 0.23976,1.14997 -0.31258,1.61418 -3.53461,4.9346 2.62295,7.34968 4.32877,9.20804 1.16652,1.27117 -2.24717,2.44494 -3.53048,3.72252 -1.94696,0.46837 -2.03627,-0.0585 -5.81888,-0.97826 0.34556,-2.7035 -2.56704,-5.9939 -5.67625,-7.78247 1.6378,-3.0478 2.60661,-10.70225 -6.43257,-10.57342 -4.60557,-0.41513 0.89179,-9.35793 3.44385,-8.83373 1.59273,1.92027 4.11313,5.51879 7.04571,2.89164 5.42249,-4.85688 4.76846,-1.55761 6.82052,-2.64351 1.27576,-9.61288 8.64037,-5.42812 5.18615,-18.01989"
         inkscape:connector-curvature="0" />
      <path
         id="path144-14"
         style="fill:#989898;fill-opacity:1;fill-rule:evenodd;stroke:none;opacity:1"
         d="m -261.82453,-470.77387 c -0.0598,0.64274 -0.0644,1.24213 0,1.79285 z m 0,-32.62046 c -7.57759,3.75666 -11.60298,31.10722 -11.41812,38.2892 -4.84224,-4.11849 -7.52338,-13.46294 -7.65762,-21.28985 v -1.19693 c 0.0201,-1.19905 0.10277,-2.35176 0.25041,-3.43281 1.44242,-10.56934 9.55896,-13.84611 18.82533,-12.38257 v 0.0129 z m 39.69461,33.64984 c 0,0 0.10855,1.43075 -0.0447,2.83376 -2.08779,19.14662 -28.90703,6.64408 -37.91014,0.90239 -1.07158,-0.68302 -1.59136,-1.69673 -1.73982,-2.97268 v -1.79285 c 0.38108,-4.09751 2.98418,-9.9694 4.09973,-16.25301 8.13969,2.92586 16.53275,2.26307 24.77879,1.28985 5.26377,-0.62175 10.26306,8.89018 10.81609,15.99254 z m -39.67579,-33.65939 -0.0188,0.01 v -0.0129 l 0.0188,0.004 z"
         inkscape:connector-curvature="0" />
      <path
         transform="translate(-290.77546,-544.06636)"
         style="color:#000000;font-style:normal;font-variant:normal;font-weight:normal;font-stretch:normal;font-size:medium;line-height:normal;font-family:sans-serif;text-indent:0;text-align:start;text-decoration:none;text-decoration-line:none;text-decoration-style:solid;text-decoration-color:#000000;letter-spacing:normal;word-spacing:normal;text-transform:none;writing-mode:lr-tb;direction:ltr;baseline-shift:baseline;text-anchor:start;white-space:normal;clip-rule:nonzero;display:inline;overflow:visible;visibility:visible;opacity:1;isolation:auto;mix-blend-mode:normal;color-interpolation:sRGB;color-interpolation-filters:linearRGB;solid-color:#000000;solid-opacity:1;fill:#c4c4c4;fill-opacity:1;fill-rule:nonzero;stroke:none;stroke-width:1.2851;stroke-linecap:butt;stroke-linejoin:miter;stroke-miterlimit:4;stroke-dasharray:none;stroke-dashoffset:0;stroke-opacity:1;color-rendering:auto;image-rendering:auto;shape-rendering:auto;text-rendering:auto;enable-background:accumulate"
         d="m 23.654297,40.378906 -3.660156,0.603516 -0.01367,-0.01758 c -0.44966,0.12229 -0.888109,0.263753 -1.316407,0.423828 L 19,41.796875 17.953125,44.574219 15.025391,45.056641 14.253906,44.115234 C 13.945719,44.41331 13.654964,44.736192 13.375,45.072266 l 0.65625,0.800781 -1.044922,2.777344 -0.839844,0.138671 -0.990234,0.16211 c -0.167061,0.439236 -0.314109,0.90063 -0.449219,1.376953 l 2.488281,-0.410156 1.88086,2.292969 -1.044922,2.779296 -2.927734,0.482422 -1.091797,-1.330078 c -0.057011,0.610611 -0.097561,1.237018 -0.1171878,1.88086 l 0.2148438,0.261718 v 0.002 L 9.875,56.90825 v 0.763672 c 0.02068,1.205737 0.1098473,2.448062 0.25,3.701172 l 1.029297,1.255859 -0.609375,1.613282 c 0.232618,1.274747 0.524477,2.539716 0.875,3.773437 l 0.779297,0.951172 -0.267578,0.712891 c 0.210496,0.625388 0.439989,1.232951 0.68164,1.830078 l 0.78711,-2.089844 2.929687,-0.482422 1.771484,2.160156 c 0.06993,-0.566538 0.147756,-1.149106 0.230469,-1.74414 l -1.009765,-1.230469 1.046875,-2.779297 0.603515,-0.09961 c 0.07727,-0.445307 0.15883,-0.890849 0.242188,-1.341797 l -1.054688,0.173828 -1.882812,-2.292969 1.046875,-2.779297 2.927734,-0.480468 0.0625,0.07617 c 0.428456,-1.826681 0.913798,-3.618297 1.4375,-5.34375 l -1.550781,-1.888671 1.046875,-2.777344 2.294922,-0.378906 c 0.809637,-1.94457 1.689542,-3.671416 2.654297,-4.994141 l -0.191407,0.03125 -2.351562,-2.869141 z m -0.523438,1.388672 1.882813,2.296875 -1.046875,2.775391 -2.927735,0.482422 L 19.15625,45.027344 20.203125,42.25 Z m -4.96875,4.074219 1.882813,2.294922 -1.046875,2.777343 -2.927735,0.482422 -1.882812,-2.292968 v -0.002 l 1.046875,-2.777343 2.927734,-0.482422 z m 1.044922,6.339844 1.882813,2.294921 -1.046875,2.779297 -2.927735,0.480469 -1.882812,-2.292969 1.046875,-2.779297 z m -4.966797,4.076171 1.88086,2.292969 -1.044922,2.779297 -2.929688,0.482422 -1.880859,-2.294922 1.044922,-2.777344 z m 18.810547,0.78125 c -0.0902,0.508063 -0.20286,1.007808 -0.310547,1.509766 l 0.375,0.457031 -1.044922,2.779297 -0.123046,0.01953 c -0.129333,0.472426 -0.266297,0.906927 -0.400391,1.36914 l 0.732422,-0.121094 1.880859,2.294922 -1.044922,2.777344 -2.929687,0.482422 -0.171875,-0.210938 c -0.517321,1.806417 -0.929374,3.46506 -1.0625,4.896485 -0.02733,0.293691 -0.04001,0.574527 -0.04297,0.849609 l 1.330078,1.619141 v 0.002 l -0.52539,1.394531 c 0.255655,0.3437 0.578379,0.645343 0.978515,0.900391 0.0134,0.0085 0.03144,0.01877 0.04492,0.02734 l 0.115234,-0.308594 0.587891,-1.5625 2.929688,-0.482422 1.880859,2.294922 -0.996094,2.648437 c 0.37407,0.196819 0.769272,0.395295 1.16211,0.59375 l -0.0078,-0.0098 1.044922,-2.779297 2.927734,-0.482422 1.882813,2.292969 -1.046875,2.779296 -0.71875,0.119141 c 0.81821,0.355347 1.649448,0.705438 2.5,1.037109 l -0.578125,-0.703124 1.046875,-2.779297 2.927734,-0.482422 1.882813,2.294922 -1.046875,2.779297 -0.765625,0.125 c 0.749255,0.241701 1.500333,0.464965 2.251953,0.669921 l -0.283203,-0.34375 1.044922,-2.777343 2.929687,-0.482422 1.880859,2.294922 -0.865234,2.300781 c 0.442216,0.06264 0.880031,0.112958 1.314453,0.154297 l 0.753907,-2.001953 2.929687,-0.482422 1.873047,2.287109 c 1.183479,-0.238036 2.278764,-0.626862 3.267578,-1.18164 l -2.265625,0.373046 -1.882813,-2.292968 1.046876,-2.779297 2.927734,-0.482422 1.882812,2.294922 -0.896484,2.378906 c 1.159177,-0.819962 2.129078,-1.92255 2.857422,-3.353516 l -0.96875,0.160157 -1.88086,-2.294922 1.046876,-2.777344 2.927734,-0.482422 0.257812,0.314453 c 0.122674,-1.334828 0.03125,-2.634765 0.03125,-2.634765 -0.0053,-0.06769 -0.01736,-0.138917 -0.02344,-0.207032 l -0.474616,1.25976 -2.927735,0.482422 -1.882812,-2.294922 1.044921,-2.777344 2.929688,-0.482422 0.876953,1.070313 c -0.218755,-0.986916 -0.506488,-1.983 -0.849609,-2.966797 l -0.236328,0.628906 -2.929688,0.482422 -1.880859,-2.294922 1.044922,-2.777344 2.05664,-0.33789 c -0.234004,-0.40937 -0.476423,-0.803385 -0.728515,-1.183594 l -1.535157,0.253906 -1.882812,-2.294922 0.474609,-1.263671 C 61.36073,59.342015 60.992119,59.106992 60.617188,58.912109 l -0.572266,1.517579 -2.927734,0.482421 -1.882813,-2.292968 v -0.002 c -1.816896,0.191587 -3.638142,0.339793 -5.460937,0.433593 l 0.335937,0.410157 -1.044922,2.779296 -2.929687,0.482422 -1.88086,-2.294922 0.490235,-1.302734 c -0.449954,-0.01422 -0.900096,-0.03381 -1.34961,-0.06055 l -0.34375,0.910156 -2.927734,0.482422 -1.619141,-1.972656 c -0.882699,-0.160226 -1.764155,-0.350027 -2.642578,-0.580078 l -1.751953,0.287109 -0.904297,-1.101562 c -0.0513,-0.01815 -0.103014,-0.03235 -0.154297,-0.05078 z m 4.195313,1.939454 1.882812,2.292968 -1.046875,2.777344 -2.927734,0.482422 -1.882813,-2.292969 1.046875,-2.779297 z m 16.99414,0.455078 1.882813,2.292968 -1.046875,2.779297 -2.927734,0.482422 -1.882813,-2.296875 1.046875,-2.777344 z m -10.980468,1.808594 1.882812,2.294921 -1.046875,2.777344 -2.927734,0.482422 -1.882813,-2.294922 1.046875,-2.777344 z m 16.99414,0.455078 1.882813,2.296875 -1.046875,2.77539 -2.927735,0.482422 -1.882812,-2.292969 1.046875,-2.779296 z m -44.96875,0.90039 1.88086,2.292969 -1.044922,2.779297 -2.929688,0.482422 -1.880859,-2.294922 1.044922,-2.777344 z m 33.988282,0.910156 1.880859,2.292969 -1.044922,2.779297 -2.929687,0.482422 -1.88086,-2.294922 1.044922,-2.777344 z m -10.982422,1.810547 1.882812,2.292969 -1.046875,2.777344 -2.927734,0.482422 -1.882813,-2.294922 1.046875,-2.775391 z m 16.99414,0.455079 1.882813,2.292968 -1.046875,2.779297 -2.927735,0.482422 -1.880859,-2.294922 1.044922,-2.779297 z m -10.980468,1.808593 1.882812,2.294922 -1.046875,2.777344 -2.927734,0.482422 -1.882813,-2.292969 v -0.002 l 1.046875,-2.777344 2.927735,-0.482422 z m 16.99414,0.455078 1.882813,2.294922 -1.046875,2.777344 -2.927735,0.482422 -1.882812,-2.292969 1.046875,-2.779297 z m -27.974609,1.355469 1.880859,2.294922 -1.044922,2.777344 -2.927734,0.482422 -1.882813,-2.294922 1.044922,-2.777344 z m 16.99414,0.455078 1.88086,2.294922 -1.044922,2.777344 -2.929688,0.482422 -1.880859,-2.294922 1.044922,-2.777344 z m -10.982421,1.810547 1.882812,2.292969 -1.046875,2.779297 -2.927734,0.480469 -1.882813,-2.291016 v -0.002 l 1.013672,-2.6875 0.0332,-0.08984 2.927735,-0.482422 z m -21.306641,0.05859 -0.863281,2.292969 -2.929688,0.482422 -0.611328,-0.74609 c 0.354202,0.691963 0.736707,1.341928 1.138672,1.960937 l 2.611328,-0.429687 0.273438,0.333984 c 0.08178,-1.153863 0.214355,-2.477037 0.380859,-3.894531 z m 38.300781,0.396484 1.882813,2.292969 -1.046875,2.779297 -2.927735,0.482422 -1.880859,-2.294922 1.044922,-2.777344 z m -10.980469,1.808594 1.882813,2.294922 -1.046875,2.777344 -2.927735,0.482421 L 41.375,77.18359 42.421875,74.404293 Z m 16.992188,0.455078 1.884765,2.296875 -1.046874,2.775391 -2.927735,0.482422 -1.882812,-2.294922 1.046875,-2.777344 z m -10.978516,1.810547 1.88086,2.294922 -1.044922,2.777344 -2.929688,0.482422 -1.880859,-2.294922 1.044922,-2.777344 z m 6.011719,2.265625 1.882812,2.294922 -1.044921,2.777344 -2.929688,0.480468 -1.880859,-2.292968 1.044922,-2.777344 z"
         id="path4457"
         inkscape:connector-curvature="0" />
      <path
         transform="translate(-290.77546,-544.06636)"
         style="display:inline;opacity:1;fill:#c9c9c9;fill-opacity:0.97254908;fill-rule:evenodd;stroke:none;stroke-width:1;stroke-linecap:butt;stroke-linejoin:miter;stroke-miterlimit:4;stroke-dasharray:none;stroke-opacity:1"
         d="m 42.882491,18.510419 c 0.05629,2.631139 -0.353583,4.09584 -0.713861,4.873452 -0.360282,0.777613 -0.516669,0.856879 -1.326359,0.24988 -0.809686,-0.606998 -1.60152,-2.216504 -1.541857,-3.519116 0.05967,-1.302615 0.02891,-1.111714 0.02891,-1.111714 0,0 -0.337858,0.03045 -0.852608,0.267434 -0.514749,0.236983 -2.325707,1.590459 -2.719681,2.212491 -0.393971,0.622031 -0.76715,0.588034 -0.805115,-0.351653 -0.03797,-0.939687 0.568006,-2.715752 1.127779,-3.435124 0.559807,-0.719362 1.026553,-0.820449 1.026553,-0.820449 0,0 -0.107585,-0.1022 -0.622843,-0.348405 -0.515261,-0.24621 -1.931499,-1.081254 -2.288927,-1.597486 -0.466676,-0.674011 -0.364239,-1.124381 0.564732,-1.394361 1.186571,-0.344845 2.146324,-0.75473 3.652996,-0.232542 -0.398783,-2.325361 0.837162,-3.280609 1.762385,-3.8846533 1.651172,-1.0779928 0.579077,0.3218187 0.610147,0.8600053 0.04175,0.723319 0.430664,1.251865 0.782106,1.845069 0.61708,-0.825427 1.016648,-1.310024 1.772118,-1.75888 0.588404,-0.349595 1.308793,-0.4976735 1.821995,-0.4106885 0.839213,0.1422415 0.967297,0.4593805 0.744023,0.7106705 -0.163467,0.183976 -0.477866,1.348228 -0.614123,1.801304 -0.155558,0.51736 -0.391155,0.937108 -0.642022,1.417281 -0.227305,0.435067 -0.92937,1.250663 -0.92937,1.250663 0,0 0.500444,0.05449 1.135159,0.248126 0.634704,0.193668 2.50125,1.205929 3.35525,2.028934 0.70358,0.678041 0.368489,0.765258 -0.185303,1.190978 -0.76644,0.589188 -2.175868,0.59942 -3.07618,0.473986 -0.900311,-0.125431 -2.065933,-0.565201 -2.065942,-0.565204 z"
         id="path4701"
         inkscape:connector-curvature="0" />
      <path
         id="path1081"
         d="M -244.54492 -519.82617 L -245.47852 -519.73438 C -245.42561 -519.1898 -245.09528 -518.74136 -244.68945 -518.41016 C -244.28362 -518.07895 -243.78024 -517.84791 -243.23828 -517.88477 L -243.30078 -518.82031 C -243.50575 -518.80637 -243.83709 -518.92406 -244.09766 -519.13672 C -244.35822 -519.34937 -244.52693 -519.641 -244.54492 -519.82617 z "
         style="color:#000000;font-style:normal;font-variant:normal;font-weight:normal;font-stretch:normal;font-size:medium;line-height:normal;font-family:sans-serif;font-variant-ligatures:normal;font-variant-position:normal;font-variant-caps:normal;font-variant-numeric:normal;font-variant-alternates:normal;font-variant-east-asian:normal;font-feature-settings:normal;font-variation-settings:normal;text-indent:0;text-align:start;text-decoration:none;text-decoration-line:none;text-decoration-style:solid;text-decoration-color:#000000;letter-spacing:normal;word-spacing:normal;text-transform:none;writing-mode:lr-tb;direction:ltr;text-orientation:mixed;dominant-baseline:auto;baseline-shift:baseline;text-anchor:start;white-space:normal;shape-padding:0;shape-margin:0;inline-size:0;clip-rule:nonzero;display:inline;overflow:visible;visibility:visible;isolation:auto;mix-blend-mode:normal;color-interpolation:sRGB;color-interpolation-filters:linearRGB;solid-color:#000000;solid-opacity:1;vector-effect:none;fill:#424242;fill-opacity:1;fill-rule:nonzero;stroke:none;stroke-width:0.93750000000000000px;stroke-linecap:butt;stroke-linejoin:miter;stroke-miterlimit:4;stroke-dasharray:none;stroke-dashoffset:0;stroke-opacity:1;filter-blend-mode:normal;filter-gaussianBlur-deviation:0;color-rendering:auto;image-rendering:auto;shape-rendering:auto;text-rendering:auto;enable-background:accumulate;stop-color:#000000;stop-opacity:1;opacity:1" />
    </g>
  </g>
</svg>
