<?xml version="1.0" encoding="UTF-8" standalone="no"?>
<svg
   xmlns:dc="http://purl.org/dc/elements/1.1/"
   xmlns:cc="http://creativecommons.org/ns#"
   xmlns:rdf="http://www.w3.org/1999/02/22-rdf-syntax-ns#"
   xmlns:svg="http://www.w3.org/2000/svg"
   xmlns="http://www.w3.org/2000/svg"
   xmlns:sodipodi="http://sodipodi.sourceforge.net/DTD/sodipodi-0.dtd"
   xmlns:inkscape="http://www.inkscape.org/namespaces/inkscape"
   inkscape:version="1.0beta1 (32d4812, 2019-09-19)"
   sodipodi:docname="etsy-logo.svg"
   id="svg835"
   version="1.1"
   focusable="false"
   aria-hidden="true"
   viewBox="0 0 24 24">
  <metadata
     id="metadata841">
    <rdf:RDF>
      <cc:Work
         rdf:about="">
        <dc:format>image/svg+xml</dc:format>
        <dc:type
           rdf:resource="http://purl.org/dc/dcmitype/StillImage" />
      </cc:Work>
    </rdf:RDF>
  </metadata>
  <defs
     id="defs839" />
  <sodipodi:namedview
     inkscape:current-layer="svg835"
     inkscape:window-maximized="0"
     inkscape:window-y="23"
     inkscape:window-x="0"
     inkscape:cy="14.35743"
     inkscape:cx="12.988549"
     inkscape:zoom="15.839192"
     showgrid="false"
     id="namedview837"
     inkscape:window-height="855"
     inkscape:window-width="1440"
     inkscape:pageshadow="2"
     inkscape:pageopacity="0"
     guidetolerance="10"
     gridtolerance="10"
     objecttolerance="10"
     borderopacity="1"
     inkscape:document-rotation="0"
     bordercolor="#666666"
     pagecolor="#ffffff" />
  <path
     id="path845"
     d="m 16.7,18 c 0,0 -2.3,-0.1 -3.3,-0.1 H 9 L 6.4,18 V 17.3 L 7.3,17.1 C 7.9,17 8,16.9 8,16.4 8,16.4 8.1,14.8 8.1,12.1 8.1,9.4 8,7.7 8,7.7 8,7.2 7.8,7.1 7.2,7 L 6.4,6.8 V 6.1 L 9,6.2 h 4.9 c 1,0 2.6,-0.2 2.6,-0.2 0,0 -0.1,1 -0.1,3.4 H 15.7 L 15.5,8.6 C 15.2,7.5 14.8,7 14.1,7 H 10.3 C 10,7 10,7 10,7.2 v 4.4 c 0,0 1.6,0 2.4,-0.1 0.4,0.1 0.9,-0.3 0.9,-0.7 v -0.1 l 0.2,-1 h 0.7 l -0.1,2.1 0.1,2.2 H 13.5 L 13.3,13.2 C 13.2,12.7 12.8,12.4 12.4,12.4 11.8,12.3 10,12.3 10,12.3 V 16 c 0,0.7 0.4,1 1.2,1 h 2.6 c 0.9,0.1 1.8,-0.4 2.1,-1.2 l 0.7,-1.4 h 0.6 c -0.1,0.4 -0.4,3 -0.5,3.6 z"
     style="fill:#ffffff" />
</svg>
