<?xml version="1.0" encoding="UTF-8" standalone="no"?>
<svg
   xmlns:dc="http://purl.org/dc/elements/1.1/"
   xmlns:cc="http://creativecommons.org/ns#"
   xmlns:rdf="http://www.w3.org/1999/02/22-rdf-syntax-ns#"
   xmlns:svg="http://www.w3.org/2000/svg"
   xmlns="http://www.w3.org/2000/svg"
   viewBox="0 0 672 672"
   height="672"
   width="672"
   xml:space="preserve"
   id="svg833"
   version="1.1">
  <metadata
     id="metadata839">
    <rdf:RDF>
      <cc:Work
         rdf:about="">
        <dc:format>image/svg+xml</dc:format>
        <dc:type
           rdf:resource="http://purl.org/dc/dcmitype/StillImage" />
        <dc:title></dc:title>
      </cc:Work>
    </rdf:RDF>
  </metadata>
  <defs
     id="defs837">
    <clipPath
       id="clipPath849"
       clipPathUnits="userSpaceOnUse">
      <path
         id="path847"
         d="M 0,503.841 H 503.841 V 0.06 L 0,0.06 Z" />
    </clipPath>
  </defs>
  <g
     transform="matrix(1.3333333,0,0,-1.3333333,0,672)"
     id="g841">
    <g
       style="fill:#ffffff"
       id="g843">
      <g
         style="fill:#ffffff"
         clip-path="url(#clipPath849)"
         id="g845">
        <path
           id="path851"
           style="fill:#ffffff;fill-opacity:1;fill-rule:nonzero;stroke:none"
           d="m 251.921,503.841 c -68.418,0 -76.997,-0.29 -103.867,-1.516 -26.814,-1.223 -45.127,-5.482 -61.151,-11.71 C 70.337,484.178 56.288,475.564 42.282,461.559 28.277,447.553 19.663,433.504 13.226,416.938 6.998,400.914 2.739,382.601 1.516,355.787 0.29,328.917 0,320.338 0,251.92 0,183.503 0.29,174.924 1.516,148.054 2.739,121.24 6.998,102.927 13.226,86.903 19.663,70.337 28.277,56.288 42.282,42.282 56.288,28.277 70.337,19.663 86.903,13.225 102.927,6.998 121.24,2.739 148.054,1.516 174.924,0.29 183.503,0 251.921,0 c 68.417,0 76.996,0.29 103.866,1.516 26.814,1.223 45.127,5.482 61.151,11.709 16.566,6.438 30.615,15.052 44.621,29.057 14.005,14.006 22.619,28.055 29.057,44.621 6.227,16.024 10.486,34.337 11.709,61.151 1.226,26.87 1.516,35.449 1.516,103.866 0,68.418 -0.29,76.997 -1.516,103.867 -1.223,26.814 -5.482,45.127 -11.709,61.151 -6.438,16.566 -15.052,30.615 -29.057,44.621 -14.006,14.005 -28.055,22.619 -44.621,29.056 -16.024,6.228 -34.337,10.487 -61.151,11.71 -26.87,1.226 -35.449,1.516 -103.866,1.516 z m 0,-45.391 c 67.265,0 75.233,-0.257 101.797,-1.469 24.562,-1.12 37.901,-5.224 46.778,-8.674 11.759,-4.57 20.151,-10.029 28.966,-18.845 8.816,-8.815 14.275,-17.207 18.845,-28.966 3.45,-8.877 7.554,-22.216 8.674,-46.778 1.212,-26.564 1.469,-34.532 1.469,-101.798 0,-67.265 -0.257,-75.233 -1.469,-101.797 -1.12,-24.562 -5.224,-37.901 -8.674,-46.778 -4.57,-11.759 -10.029,-20.151 -18.845,-28.966 -8.815,-8.816 -17.207,-14.275 -28.966,-18.845 -8.877,-3.45 -22.216,-7.554 -46.778,-8.674 -26.56,-1.212 -34.527,-1.469 -101.797,-1.469 -67.271,0 -75.237,0.257 -101.798,1.469 -24.562,1.12 -37.901,5.224 -46.778,8.674 -11.759,4.57 -20.151,10.029 -28.966,18.845 -8.815,8.815 -14.275,17.207 -18.845,28.966 -3.45,8.877 -7.554,22.216 -8.674,46.778 -1.212,26.564 -1.469,34.532 -1.469,101.797 0,67.266 0.257,75.234 1.469,101.798 1.12,24.562 5.224,37.901 8.674,46.778 4.57,11.759 10.029,20.151 18.845,28.966 8.815,8.816 17.207,14.275 28.966,18.845 8.877,3.45 22.216,7.554 46.778,8.674 26.564,1.212 34.532,1.469 101.798,1.469" />
      </g>
    </g>
    <path
       id="path853"
       style="fill:#ffffff;fill-opacity:1;fill-rule:nonzero;stroke:none"
       d="m 251.921,167.947 c -46.378,0 -83.974,37.596 -83.974,83.973 0,46.378 37.596,83.974 83.974,83.974 46.377,0 83.973,-37.596 83.973,-83.974 0,-46.377 -37.596,-83.973 -83.973,-83.973 z m 0,213.338 c -71.447,0 -129.365,-57.918 -129.365,-129.365 0,-71.446 57.918,-129.364 129.365,-129.364 71.446,0 129.364,57.918 129.364,129.364 0,71.447 -57.918,129.365 -129.364,129.365" />
    <path
       id="path855"
       style="fill:#ffffff;fill-opacity:1;fill-rule:nonzero;stroke:none"
       d="m 416.627,386.396 c 0,-16.696 -13.535,-30.23 -30.231,-30.23 -16.695,0 -30.23,13.534 -30.23,30.23 0,16.696 13.535,30.231 30.23,30.231 16.696,0 30.231,-13.535 30.231,-30.231" />
  </g>
</svg>
